<svg id="Regular" height="512" viewBox="0 0 24 24" width="512" xmlns="http://www.w3.org/2000/svg"><path d="m18.871 23.5h-13.742c-.899 0-1.629-.741-1.629-1.653v-19.694c0-.912.73-1.653 1.629-1.653h13.742c.898 0 1.629.741 1.629 1.653v19.694c0 .912-.73 1.653-1.629 1.653z" fill="#cfd8dc"/><g fill="#607d8b"><path d="m8.9 7.5h-2.8c-.331 0-.6-.269-.6-.6v-2.8c0-.331.269-.6.6-.6h2.8c.331 0 .6.269.6.6v2.8c0 .331-.269.6-.6.6z"/><path d="m8.9 14.5h-2.8c-.331 0-.6-.269-.6-.6v-2.8c0-.331.269-.6.6-.6h2.8c.331 0 .6.269.6.6v2.8c0 .331-.269.6-.6.6z"/><path d="m8.9 21.5h-2.8c-.331 0-.6-.269-.6-.6v-2.8c0-.331.269-.6.6-.6h2.8c.331 0 .6.269.6.6v2.8c0 .331-.269.6-.6.6z"/></g><path d="m19.275 24h-14.55c-.952 0-1.725-.773-1.725-1.725v-20.55c0-.952.773-1.725 1.725-1.725h14.551c.951 0 1.724.773 1.724 1.725v20.551c0 .951-.773 1.724-1.725 1.724zm-14.55-22.5c-.124 0-.225.101-.225.225v20.551c0 .124.101.225.225.225h14.551c.124 0 .225-.101.225-.225v-20.551c0-.124-.101-.225-.225-.225z"/><path d="m9.25 8h-3.5c-.414 0-.75-.336-.75-.75v-3.5c0-.414.336-.75.75-.75h3.5c.414 0 .75.336.75.75v3.5c0 .414-.336.75-.75.75zm-2.75-1.5h2v-2h-2z"/><path d="m9.25 15h-3.5c-.414 0-.75-.336-.75-.75v-3.5c0-.414.336-.75.75-.75h3.5c.414 0 .75.336.75.75v3.5c0 .414-.336.75-.75.75zm-2.75-1.5h2v-2h-2z"/><path d="m9.25 22h-3.5c-.414 0-.75-.336-.75-.75v-3.5c0-.414.336-.75.75-.75h3.5c.414 0 .75.336.75.75v3.5c0 .414-.336.75-.75.75zm-2.75-1.5h2v-2h-2z"/><path d="m17.25 6.5h-5.5c-.414 0-.75-.336-.75-.75s.336-.75.75-.75h5.5c.414 0 .75.336.75.75s-.336.75-.75.75z"/><path d="m17.25 13.5h-5.5c-.414 0-.75-.336-.75-.75s.336-.75.75-.75h5.5c.414 0 .75.336.75.75s-.336.75-.75.75z"/><path d="m17.25 20.5h-5.5c-.414 0-.75-.336-.75-.75s.336-.75.75-.75h5.5c.414 0 .75.336.75.75s-.336.75-.75.75z"/></svg>